<svg width="65" height="65" viewBox="0 0 65 65" fill="none" xmlns="http://www.w3.org/2000/svg">
<path fill-rule="evenodd" clip-rule="evenodd" d="M53.0076 7.28582L49.0164 9.59016L50.0819 11.4358L54.7039 8.76728C57.4757 11.3616 59.7928 14.4359 61.5225 17.8576L47.1535 26.1535L48.219 27.9991L62.4241 19.7979C64.0825 23.6999 65 27.9928 65 32.5C65 38.1119 63.5776 43.3915 61.0738 47.9981L50.082 54.3443L51.1476 56.1899L58.5767 51.9007C52.6521 59.851 43.1773 65 32.5 65C27.612 65 22.976 63.9209 18.8173 61.988L35.2383 52.5074L34.1727 50.6617L16.5611 60.8298C11.0433 57.7186 6.52553 53.0421 3.61055 47.4027L17.9207 39.1407L16.8551 37.2951L2.69212 45.4721C0.960411 41.4985 0 37.1114 0 32.5C0 29.523 0.400274 26.6394 1.14994 23.9003L40.7271 1.05036C45.288 2.24017 49.4587 4.39585 53.0076 7.28582ZM37.5961 0.39723C35.9358 0.13576 34.2338 0 32.5 0C18.6506 0 6.82455 8.66268 2.14459 20.8652L37.5961 0.39723Z" fill="#FAF6ED"/>
<path d="M41.1139 52.8937L41.2889 42.5687C39.7489 42.3121 38.9789 41.7754 38.9789 40.9587C38.9789 40.5854 39.0839 40.2937 39.2939 40.0837C39.5273 39.8504 39.7489 39.7337 39.9589 39.7337C40.1923 39.7337 40.6356 39.8037 41.2889 39.9437L41.1839 34.3087C39.6206 34.1221 38.3723 33.6671 37.4389 32.9437C36.5056 32.1971 36.0389 31.2754 36.0389 30.1787C36.0389 29.4554 36.3306 28.7671 36.9139 28.1137C37.4973 27.4371 38.3723 27.0987 39.5389 27.0987C40.7289 27.0987 41.6739 27.5421 42.3739 28.4287C43.0739 29.2921 43.5056 30.4587 43.6689 31.9287C47.7289 31.9287 51.4506 30.6337 54.8339 28.0437C55.3939 27.6704 55.7789 27.4837 55.9889 27.4837C56.5489 27.4837 56.8756 27.7871 56.9689 28.3937C56.9689 29.3737 56.2573 30.3421 54.8339 31.2987C53.4339 32.2554 51.7073 33.0371 49.6539 33.6437C47.6006 34.2271 45.6523 34.5187 43.8089 34.5187V40.2937C44.5789 40.4104 45.4889 40.4687 46.5389 40.4687C47.6123 40.4687 48.8606 40.3404 50.2839 40.0837C51.7073 39.8037 52.5006 39.6637 52.6639 39.6637C52.8506 39.6637 53.0489 39.7571 53.2589 39.9437C53.4923 40.1071 53.6089 40.3404 53.6089 40.6437C53.6089 41.2971 52.7689 41.8337 51.0889 42.2537C49.4323 42.6737 47.6239 42.8837 45.6639 42.8837C45.0573 42.8837 44.4389 42.8604 43.8089 42.8137L43.9839 52.8937C43.9839 54.2471 43.5056 54.9237 42.5489 54.9237C41.5923 54.9237 41.1139 54.2471 41.1139 52.8937ZM41.1139 31.7887C40.9273 30.1787 40.3906 29.3737 39.5039 29.3737C39.2239 29.3737 38.9789 29.4671 38.7689 29.6537C38.5589 29.8404 38.4539 30.0504 38.4539 30.2837C38.4539 31.0771 39.3406 31.5787 41.1139 31.7887Z" fill="#EE5544"/>
<path d="M41.1139 52.8937L40.6139 52.8853V52.8937H41.1139ZM41.2889 42.5687L41.7889 42.5772L41.7962 42.1464L41.3711 42.0755L41.2889 42.5687ZM39.2939 40.0837L38.9404 39.7302L38.9404 39.7302L39.2939 40.0837ZM41.2889 39.9437L41.1842 40.4326L41.8006 40.5647L41.7889 39.9344L41.2889 39.9437ZM41.1839 34.3087L41.6839 34.2994L41.6757 33.8639L41.2432 33.8123L41.1839 34.3087ZM37.4389 32.9437L37.1266 33.3342L37.1327 33.3389L37.4389 32.9437ZM36.9139 28.1137L37.287 28.4468L37.2926 28.4402L36.9139 28.1137ZM42.3739 28.4287L41.9815 28.7386L41.9856 28.7436L42.3739 28.4287ZM43.6689 31.9287L43.172 31.9839L43.2214 32.4287H43.6689V31.9287ZM54.8339 28.0437L54.5566 27.6277L54.543 27.6368L54.53 27.6467L54.8339 28.0437ZM56.9689 28.3937H57.4689V28.3555L57.4631 28.3177L56.9689 28.3937ZM54.8339 31.2987L54.555 30.8837L54.5518 30.8859L54.8339 31.2987ZM49.6539 33.6437L49.7906 34.1247L49.7956 34.1232L49.6539 33.6437ZM43.8089 34.5187V34.0187H43.3089V34.5187H43.8089ZM43.8089 40.2937H43.3089V40.7237L43.734 40.7881L43.8089 40.2937ZM50.2839 40.0837L50.3727 40.5759L50.3805 40.5743L50.2839 40.0837ZM53.2589 39.9437L52.9268 40.3174L52.9484 40.3367L52.9722 40.3533L53.2589 39.9437ZM51.0889 42.2537L50.9677 41.7687L50.9661 41.7691L51.0889 42.2537ZM43.8089 42.8137L43.8459 42.3151L43.2995 42.2746L43.309 42.8224L43.8089 42.8137ZM43.9839 52.8937H44.484L44.4839 52.8851L43.9839 52.8937ZM41.1139 31.7887L41.0551 32.2853L41.6835 32.3597L41.6106 31.7311L41.1139 31.7887ZM38.7689 29.6537L39.1011 30.0274L39.1011 30.0274L38.7689 29.6537ZM41.6139 52.9022L41.7889 42.5772L40.789 42.5603L40.614 52.8853L41.6139 52.9022ZM41.3711 42.0755C40.6319 41.9523 40.1389 41.7702 39.8423 41.5635C39.5684 41.3726 39.4789 41.1772 39.4789 40.9587H38.4789C38.4789 41.5569 38.7745 42.0382 39.2705 42.3839C39.744 42.7139 40.406 42.9285 41.2067 43.0619L41.3711 42.0755ZM39.4789 40.9587C39.4789 40.6821 39.5539 40.5308 39.6475 40.4373L38.9404 39.7302C38.6139 40.0566 38.4789 40.4887 38.4789 40.9587H39.4789ZM39.6475 40.4373C39.839 40.2458 39.9404 40.2337 39.9589 40.2337V39.2337C39.5575 39.2337 39.2155 39.455 38.9404 39.7302L39.6475 40.4373ZM39.9589 40.2337C40.1311 40.2337 40.5238 40.2911 41.1842 40.4326L41.3937 39.4548C40.7475 39.3163 40.2535 39.2337 39.9589 39.2337V40.2337ZM41.7889 39.9344L41.6839 34.2994L40.684 34.318L40.789 39.953L41.7889 39.9344ZM41.2432 33.8123C39.7408 33.6329 38.5868 33.2008 37.7452 32.5485L37.1327 33.3389C38.1577 34.1333 39.5004 34.6113 41.1247 34.8052L41.2432 33.8123ZM37.7513 32.5533C36.9244 31.8918 36.5389 31.1085 36.5389 30.1787H35.5389C35.5389 31.4422 36.0868 32.5024 37.1266 33.3342L37.7513 32.5533ZM36.5389 30.1787C36.5389 29.6029 36.7673 29.0287 37.2869 28.4467L36.541 27.7807C35.8939 28.5054 35.5389 29.3079 35.5389 30.1787H36.5389ZM37.2926 28.4402C37.7539 27.9052 38.4703 27.5987 39.5389 27.5987V26.5987C38.2742 26.5987 37.2407 26.9689 36.5352 27.7873L37.2926 28.4402ZM39.5389 27.5987C40.5854 27.5987 41.382 27.9792 41.9815 28.7386L42.7664 28.1189C41.9659 27.1049 40.8725 26.5987 39.5389 26.5987V27.5987ZM41.9856 28.7436C42.6083 29.5117 43.0158 30.5784 43.172 31.9839L44.1659 31.8735C43.9954 30.3391 43.5395 29.0724 42.7623 28.1138L41.9856 28.7436ZM43.6689 32.4287C47.8445 32.4287 51.6719 31.094 55.1379 28.4408L54.53 27.6467C51.2293 30.1735 47.6134 31.4287 43.6689 31.4287V32.4287ZM55.1113 28.4598C55.3818 28.2794 55.597 28.1531 55.7608 28.0736C55.9417 27.986 56.0039 27.9837 55.9889 27.9837V26.9837C55.764 26.9837 55.5287 27.0748 55.3246 27.1738C55.1034 27.281 54.8461 27.4347 54.5566 27.6277L55.1113 28.4598ZM55.9889 27.9837C56.1765 27.9837 56.2649 28.0323 56.3137 28.0776C56.3682 28.1282 56.4388 28.2363 56.4748 28.4698L57.4631 28.3177C57.4057 27.9445 57.2663 27.5975 56.9942 27.3448C56.7163 27.0868 56.3614 26.9837 55.9889 26.9837V27.9837ZM56.4689 28.3937C56.4689 29.1133 55.9425 29.9512 54.555 30.8838L55.1129 31.7137C56.572 30.733 57.4689 29.6341 57.4689 28.3937H56.4689ZM54.5518 30.8859C53.2045 31.8066 51.5281 32.5686 49.5123 33.1642L49.7956 34.1232C51.8864 33.5055 53.6634 32.7042 55.116 31.7116L54.5518 30.8859ZM49.5173 33.1628C47.5016 33.7354 45.5995 34.0187 43.8089 34.0187V35.0187C45.7051 35.0187 47.6996 34.7187 49.7906 34.1247L49.5173 33.1628ZM43.3089 34.5187V40.2937H44.3089V34.5187H43.3089ZM43.734 40.7881C44.5357 40.9095 45.4719 40.9687 46.5389 40.9687V39.9687C45.506 39.9687 44.6222 39.9112 43.8838 39.7994L43.734 40.7881ZM46.5389 40.9687C47.6502 40.9687 48.9294 40.8361 50.3727 40.5758L50.1952 39.5917C48.7918 39.8447 47.5743 39.9687 46.5389 39.9687V40.9687ZM50.3805 40.5743C51.091 40.4345 51.6415 40.3303 52.0333 40.2611C52.2296 40.2265 52.3831 40.2012 52.4957 40.1847C52.621 40.1664 52.6654 40.1637 52.6639 40.1637V39.1637C52.5808 39.1637 52.4648 39.1786 52.3509 39.1952C52.2244 39.2138 52.06 39.241 51.8595 39.2763C51.4581 39.3472 50.9002 39.4529 50.1874 39.5931L50.3805 40.5743ZM52.6639 40.1637C52.6791 40.1637 52.7634 40.1723 52.9268 40.3174L53.5911 39.57C53.3345 39.3419 53.0221 39.1637 52.6639 39.1637V40.1637ZM52.9722 40.3533C53.0619 40.4162 53.1089 40.491 53.1089 40.6437H54.1089C54.1089 40.1897 53.9226 39.798 53.5457 39.5341L52.9722 40.3533ZM53.1089 40.6437C53.1089 40.7226 53.066 40.8872 52.7097 41.1149C52.3569 41.3403 51.7879 41.5636 50.9677 41.7687L51.2102 42.7388C52.07 42.5239 52.761 42.2688 53.2481 41.9576C53.7318 41.6485 54.1089 41.2182 54.1089 40.6437H53.1089ZM50.9661 41.7691C49.3549 42.1775 47.5884 42.3837 45.6639 42.3837V43.3837C47.6594 43.3837 49.5096 43.1699 51.2118 42.7384L50.9661 41.7691ZM45.6639 42.3837C45.0701 42.3837 44.4641 42.3609 43.8459 42.3151L43.772 43.3124C44.4138 43.3599 45.0445 43.3837 45.6639 43.3837V42.3837ZM43.309 42.8224L43.484 52.9024L44.4839 52.8851L44.3089 42.8051L43.309 42.8224ZM43.4839 52.8937C43.4839 53.5267 43.3693 53.912 43.2169 54.1276C43.0869 54.3115 42.8938 54.4237 42.5489 54.4237V55.4237C43.1608 55.4237 43.6851 55.1977 44.0335 54.7048C44.3594 54.2438 44.4839 53.6141 44.4839 52.8937H43.4839ZM42.5489 54.4237C42.2041 54.4237 42.0109 54.3115 41.881 54.1276C41.7286 53.912 41.6139 53.5267 41.6139 52.8937H40.6139C40.6139 53.6141 40.7385 54.2438 41.0644 54.7048C41.4128 55.1977 41.9371 55.4237 42.5489 55.4237V54.4237ZM41.6106 31.7311C41.5136 30.8941 41.3199 30.1987 40.9875 29.7001C40.6364 29.1735 40.1317 28.8737 39.5039 28.8737V29.8737C39.7628 29.8737 39.9698 29.9764 40.1554 30.2548C40.3597 30.5612 40.5277 31.0734 40.6173 31.8463L41.6106 31.7311ZM39.5039 28.8737C39.101 28.8737 38.7379 29.0123 38.4368 29.28L39.1011 30.0274C39.2199 29.9218 39.3469 29.8737 39.5039 29.8737V28.8737ZM38.4368 29.28C38.1438 29.5405 37.9539 29.8786 37.9539 30.2837H38.9539C38.9539 30.2222 38.9741 30.1403 39.1011 30.0274L38.4368 29.28ZM37.9539 30.2837C37.9539 30.913 38.3242 31.3798 38.8727 31.6902C39.4019 31.9896 40.1447 32.1774 41.0551 32.2853L41.1727 31.2922C40.3098 31.19 39.7226 31.0221 39.3652 30.8198C39.027 30.6285 38.9539 30.4478 38.9539 30.2837H37.9539Z" fill="#EE5544"/>
<path d="M24.4573 22.5635C22.2407 15.3768 20.9807 11.7835 20.6773 11.7835C20.3973 11.7835 19.4173 14.4435 17.7373 19.7635L16.8973 22.4235C17.924 22.2601 19.0557 22.1785 20.2923 22.1785C21.5523 22.1785 22.9407 22.3068 24.4573 22.5635ZM13.5723 25.3285C11.939 25.8651 10.539 26.7051 9.37233 27.8485C8.229 28.9918 7.65733 30.0651 7.65733 31.0685C7.65733 31.5585 7.774 31.9435 8.00733 32.2235C8.264 32.4801 8.59066 32.6085 8.98733 32.6085C10.2707 32.6085 11.799 30.1818 13.5723 25.3285ZM31.9823 32.5735C31.9823 33.2735 31.7957 33.8451 31.4223 34.2885C31.049 34.7085 30.5823 34.9185 30.0223 34.9185C28.9957 34.9185 28.214 34.1601 27.6773 32.6435C26.6273 29.5168 25.7873 26.9268 25.1573 24.8735C23.384 24.5701 21.7623 24.4185 20.2923 24.4185C18.8457 24.4185 17.5157 24.5351 16.3023 24.7685C14.7857 28.5718 13.6657 31.0451 12.9423 32.1885C11.7757 34.0085 10.4223 34.9185 8.88233 34.9185C7.809 34.9185 6.95733 34.5568 6.32733 33.8335C5.69733 33.1101 5.38233 32.2118 5.38233 31.1385C5.38233 29.5285 6.199 27.9068 7.83233 26.2735C9.46566 24.6401 11.589 23.5201 14.2023 22.9135C15.229 20.0668 16.1857 17.2551 17.0723 14.4785C17.9823 11.7018 18.4957 10.1735 18.6123 9.89346C19.1023 8.49346 19.779 7.79346 20.6423 7.79346C21.599 7.79346 22.3107 8.40013 22.7773 9.61346C22.894 9.94013 23.2207 10.9085 23.7573 12.5185L27.2223 23.0185C28.179 23.2985 28.9607 23.6601 29.5673 24.1035C30.174 24.5468 30.4773 24.9318 30.4773 25.2585C30.4773 25.7951 30.1857 26.0635 29.6023 26.0635C29.3923 26.0635 28.8323 25.9001 27.9223 25.5735C28.9257 28.8168 29.579 30.6718 29.8823 31.1385C30.1857 31.6051 30.4307 31.8851 30.6173 31.9785C30.804 32.0718 31.014 32.1418 31.2473 32.1885C31.7373 32.2818 31.9823 32.4101 31.9823 32.5735Z" fill="#EE5544"/>
<path d="M24.4573 22.5635L24.3739 23.0565L25.1744 23.1919L24.9351 22.4161L24.4573 22.5635ZM17.7373 19.7635L17.2605 19.6129L17.2605 19.6129L17.7373 19.7635ZM16.8973 22.4235L16.4205 22.2729L16.1769 23.0444L16.9759 22.9173L16.8973 22.4235ZM13.5723 25.3285L14.042 25.5001L14.3958 24.5316L13.4163 24.8534L13.5723 25.3285ZM9.37233 27.8485L9.02235 27.4913L9.01878 27.4949L9.37233 27.8485ZM8.00733 32.2235L7.62322 32.5436L7.63774 32.561L7.65378 32.577L8.00733 32.2235ZM31.4223 34.2885L31.7962 34.6208L31.8048 34.6105L31.4223 34.2885ZM27.6773 32.6435L27.2033 32.8027L27.206 32.8103L27.6773 32.6435ZM25.1573 24.8735L25.6353 24.7268L25.545 24.4325L25.2416 24.3806L25.1573 24.8735ZM16.3023 24.7685L16.2079 24.2775L15.9392 24.3291L15.8379 24.5833L16.3023 24.7685ZM12.9423 32.1885L13.3633 32.4583L13.3649 32.4558L12.9423 32.1885ZM6.32733 33.8335L6.70437 33.5051L6.70437 33.5051L6.32733 33.8335ZM7.83233 26.2735L8.18588 26.627L8.18588 26.627L7.83233 26.2735ZM14.2023 22.9135L14.3154 23.4005L14.5804 23.339L14.6727 23.0831L14.2023 22.9135ZM17.0723 14.4785L16.5972 14.3227L16.596 14.3264L17.0723 14.4785ZM18.6123 9.89346L19.0739 10.0858L19.0795 10.0724L19.0843 10.0586L18.6123 9.89346ZM22.7773 9.61346L23.2483 9.44525L23.244 9.43397L22.7773 9.61346ZM23.7573 12.5185L24.2321 12.3618L24.2317 12.3603L23.7573 12.5185ZM27.2223 23.0185L26.7475 23.1752L26.8298 23.4246L27.0819 23.4983L27.2223 23.0185ZM29.5673 24.1035L29.8623 23.6998L29.8623 23.6998L29.5673 24.1035ZM27.9223 25.5735L28.0913 25.1029L27.1487 24.7645L27.4447 25.7212L27.9223 25.5735ZM29.8823 31.1385L29.4631 31.411L29.4631 31.411L29.8823 31.1385ZM30.6173 31.9785L30.3937 32.4257L30.3937 32.4257L30.6173 31.9785ZM31.2473 32.1885L31.1493 32.6788L31.1538 32.6796L31.2473 32.1885ZM24.9351 22.4161C23.8263 18.8213 22.9549 16.119 22.3217 14.313C22.0056 13.4117 21.7456 12.7241 21.5427 12.2577C21.4423 12.027 21.3491 11.8345 21.2639 11.6934C21.2226 11.6249 21.1712 11.5484 21.1094 11.4828C21.0733 11.4444 20.922 11.2835 20.6773 11.2835V12.2835C20.5634 12.2835 20.4825 12.2421 20.4456 12.2192C20.4073 12.1956 20.3861 12.1733 20.3814 12.1683C20.3725 12.1589 20.3815 12.1666 20.4079 12.2104C20.4584 12.2939 20.5307 12.4382 20.6257 12.6567C20.8137 13.0887 21.064 13.7485 21.378 14.6439C22.0047 16.4313 22.8717 19.1189 23.9795 22.7108L24.9351 22.4161ZM20.6773 11.2835C20.4703 11.2835 20.3318 11.398 20.2812 11.4439C20.2167 11.5022 20.1655 11.5693 20.1269 11.6258C20.0477 11.7415 19.9666 11.8942 19.8842 12.0682C19.7169 12.4213 19.5095 12.9369 19.2632 13.6056C18.769 14.947 18.1011 16.9511 17.2605 19.6129L18.2141 19.914C19.0536 17.2558 19.7157 15.2699 20.2015 13.9513C20.4451 13.29 20.6402 12.8081 20.7879 12.4963C20.863 12.3378 20.9176 12.241 20.9522 12.1905C20.9704 12.1639 20.9706 12.1687 20.9521 12.1854C20.9473 12.1897 20.8493 12.2835 20.6773 12.2835V11.2835ZM17.2605 19.6129L16.4205 22.2729L17.3741 22.574L18.2141 19.914L17.2605 19.6129ZM16.9759 22.9173C17.9722 22.7587 19.0772 22.6785 20.2923 22.6785V21.6785C19.0341 21.6785 17.8757 21.7615 16.8188 21.9297L16.9759 22.9173ZM20.2923 22.6785C21.5191 22.6785 22.879 22.8035 24.3739 23.0565L24.5408 22.0705C23.0023 21.8101 21.5856 21.6785 20.2923 21.6785V22.6785ZM13.4163 24.8534C11.714 25.4127 10.2466 26.2916 9.02237 27.4914L9.72229 28.2056C10.8313 27.1187 12.164 26.3175 13.7284 25.8035L13.4163 24.8534ZM9.01878 27.4949C7.83669 28.677 7.15733 29.871 7.15733 31.0685H8.15733C8.15733 30.2593 8.6213 29.3066 9.72588 28.202L9.01878 27.4949ZM7.15733 31.0685C7.15733 31.635 7.29267 32.1469 7.62322 32.5436L8.39144 31.9034C8.25532 31.74 8.15733 31.4819 8.15733 31.0685H7.15733ZM7.65378 32.577C8.01337 32.9366 8.4716 33.1085 8.98733 33.1085V32.1085C8.70973 32.1085 8.51462 32.0236 8.36088 31.8699L7.65378 32.577ZM8.98733 33.1085C9.47191 33.1085 9.92002 32.8793 10.3225 32.532C10.726 32.1837 11.1234 31.6833 11.5192 31.0549C12.3115 29.7969 13.1512 27.938 14.042 25.5001L13.1027 25.1569C12.2202 27.5722 11.409 29.3533 10.673 30.522C10.3046 31.1069 9.96847 31.5166 9.66908 31.7749C9.3686 32.0343 9.14441 32.1085 8.98733 32.1085V33.1085ZM31.4823 32.5735C31.4823 33.1811 31.3223 33.631 31.0399 33.9664L31.8048 34.6105C32.269 34.0593 32.4823 33.3658 32.4823 32.5735H31.4823ZM31.0486 33.9563C30.7698 34.27 30.4389 34.4185 30.0223 34.4185V35.4185C30.7257 35.4185 31.3282 35.147 31.796 34.6206L31.0486 33.9563ZM30.0223 34.4185C29.3196 34.4185 28.6613 33.9254 28.1487 32.4767L27.206 32.8103C27.7667 34.3949 28.6717 35.4185 30.0223 35.4185V34.4185ZM28.1513 32.4843C27.1021 29.3598 26.2636 26.7744 25.6353 24.7268L24.6793 25.0201C25.3111 27.0792 26.1526 29.6738 27.2033 32.8026L28.1513 32.4843ZM25.2416 24.3806C23.4464 24.0735 21.796 23.9185 20.2923 23.9185V24.9185C21.7286 24.9185 23.3216 25.0667 25.073 25.3663L25.2416 24.3806ZM20.2923 23.9185C18.8192 23.9185 17.4571 24.0372 16.2079 24.2775L16.3968 25.2595C17.5742 25.033 18.8721 24.9185 20.2923 24.9185V23.9185ZM15.8379 24.5833C14.3182 28.3942 13.2142 30.8235 12.5198 31.9211L13.3649 32.4558C14.1171 31.2667 15.2531 28.7494 16.7668 24.9537L15.8379 24.5833ZM12.5214 31.9186C11.406 33.6586 10.1883 34.4185 8.88233 34.4185V35.4185C10.6564 35.4185 12.1453 34.3583 13.3633 32.4583L12.5214 31.9186ZM8.88233 34.4185C7.93434 34.4185 7.22747 34.1057 6.70437 33.5051L5.95029 34.1619C6.68719 35.0079 7.68365 35.4185 8.88233 35.4185V34.4185ZM6.70437 33.5051C6.16321 32.8837 5.88233 32.1065 5.88233 31.1385H4.88233C4.88233 32.3171 5.23145 33.3365 5.95029 34.1619L6.70437 33.5051ZM5.88233 31.1385C5.88233 29.7095 6.60533 28.2076 8.18588 26.627L7.47878 25.9199C5.79266 27.606 4.88233 29.3474 4.88233 31.1385H5.88233ZM8.18588 26.627C9.74303 25.0699 11.7782 23.9895 14.3154 23.4005L14.0893 22.4264C11.3998 23.0507 9.1883 24.2104 7.47878 25.9199L8.18588 26.627ZM14.6727 23.0831C15.7014 20.2308 16.66 17.4133 17.5486 14.6306L16.596 14.3264C15.7113 17.0969 14.7566 19.9028 13.732 22.7438L14.6727 23.0831ZM17.5475 14.6342C18.4627 11.8416 18.967 10.3422 19.0739 10.0858L18.1508 9.70115C18.0243 10.0048 17.502 11.562 16.5972 14.3227L17.5475 14.6342ZM19.0843 10.0586C19.5603 8.69843 20.1223 8.29346 20.6423 8.29346V7.29346C19.4357 7.29346 18.6443 8.28849 18.1404 9.72829L19.0843 10.0586ZM20.6423 8.29346C21.0048 8.29346 21.3061 8.40468 21.5692 8.62897C21.8417 8.86123 22.0962 9.23533 22.3107 9.79295L23.244 9.43397C22.9918 8.77826 22.6572 8.24236 22.2179 7.86795C21.7694 7.48557 21.2366 7.29346 20.6423 7.29346V8.29346ZM22.3065 9.78163C22.4209 10.102 22.7455 11.064 23.283 12.6766L24.2317 12.3603C23.6959 10.7529 23.3671 9.77826 23.2482 9.44529L22.3065 9.78163ZM23.2825 12.6752L26.7475 23.1752L27.6971 22.8618L24.2321 12.3618L23.2825 12.6752ZM27.0819 23.4983C28.0001 23.7671 28.7249 24.1071 29.2723 24.5072L29.8623 23.6998C29.1965 23.2132 28.3579 22.8299 27.3628 22.5386L27.0819 23.4983ZM29.2723 24.5072C29.5563 24.7146 29.7443 24.891 29.8571 25.0341C29.9725 25.1807 29.9773 25.2513 29.9773 25.2585H30.9773C30.9773 24.9389 30.8305 24.6538 30.6426 24.4153C30.452 24.1734 30.1851 23.9356 29.8623 23.6998L29.2723 24.5072ZM29.9773 25.2585C29.9773 25.4385 29.9303 25.4848 29.9201 25.4942C29.9019 25.511 29.8268 25.5635 29.6023 25.5635V26.5635C29.9612 26.5635 30.3236 26.4818 30.5971 26.2302C30.8785 25.9713 30.9773 25.6151 30.9773 25.2585H29.9773ZM29.6023 25.5635C29.6028 25.5635 29.5692 25.562 29.483 25.5437C29.4032 25.5268 29.298 25.4998 29.1648 25.461C28.8988 25.3834 28.542 25.2647 28.0913 25.1029L27.7534 26.0441C28.2126 26.2089 28.5909 26.3352 28.8848 26.421C29.1568 26.5003 29.4154 26.5635 29.6023 26.5635V25.5635ZM27.4447 25.7212C27.9471 27.3453 28.3634 28.6269 28.6932 29.5633C28.858 30.0312 29.0027 30.4172 29.1269 30.7186C29.2474 31.011 29.3599 31.2521 29.4631 31.411L30.3016 30.866C30.2531 30.7915 30.1702 30.6257 30.0515 30.3377C29.9365 30.0587 29.7983 29.6907 29.6364 29.2311C29.3129 28.3125 28.9009 27.0449 28.4 25.4257L27.4447 25.7212ZM29.4631 31.411C29.622 31.6555 29.7735 31.8634 29.9173 32.0277C30.0544 32.1844 30.2135 32.3356 30.3937 32.4257L30.8409 31.5312C30.8423 31.5319 30.8266 31.5239 30.7935 31.4953C30.7614 31.4675 30.7202 31.4267 30.6699 31.3692C30.5686 31.2535 30.446 31.0881 30.3016 30.866L29.4631 31.411ZM30.3937 32.4257C30.6252 32.5414 30.8783 32.6246 31.1493 32.6788L31.3454 31.6982C31.1497 31.659 30.9828 31.6022 30.8409 31.5312L30.3937 32.4257ZM31.1538 32.6796C31.3826 32.7232 31.5093 32.7676 31.5666 32.7976C31.594 32.812 31.5792 32.8097 31.5535 32.7791C31.5217 32.7412 31.4823 32.6693 31.4823 32.5735H32.4823C32.4823 32.2012 32.198 31.9995 32.0306 31.9118C31.8428 31.8135 31.602 31.747 31.3409 31.6973L31.1538 32.6796Z" fill="#EE5544"/>
</svg>
